<svg width="1808" height="2515" viewBox="0 0 1808 2515" fill="none" xmlns="http://www.w3.org/2000/svg">
<path d="M1808 904C1808 1403.27 1403.27 1808 904 1808C404.735 1808 0 1403.27 0 904C0 404.735 404.735 0 904 0C1403.27 0 1808 404.735 1808 904Z" fill="#15100B"/>
<path d="M1713 904C1713 1357.98 1344.98 1726 891 1726C437.022 1726 69 1357.98 69 904C69 450.022 437.022 82 891 82C1344.98 82 1713 450.022 1713 904Z" fill="#6339FE"/>
<path d="M286.304 570.5L149.499 553.5C81.998 631 -63.5 1138.5 313.304 1491L366.304 1384.5C237.021 1218.69 206.984 1078.08 261.804 705.5H218.804L286.304 570.5Z" fill="#3626C6"/>
<path d="M1443.5 1514.88C1493.08 1502.37 1542.74 1489.87 1592.32 1477.36C1615.69 1477.36 1639.07 1477.36 1690.21 1477.36C1646.73 1642.93 1516.08 1693.18 1395.49 1755.78C1349.55 2077.01 1139.25 2293.57 908.023 2514.45C673.3 2302.13 466.196 2081.48 419.147 1786.75C298.621 1691.84 195.665 1610.77 81.0947 1520.54C144.894 1484.66 175.565 1467.39 206.236 1450.11C239.587 1449.67 272.938 1449.22 306.289 1448.7C315.222 1449.22 324.156 1449.52 333.089 1449.59C354.603 1464.85 376.043 1480.12 397.558 1495.3C358.996 1525.3 320.508 1555.38 276.66 1589.55C522.029 1766.5 701.663 1547.64 895.07 1507.06C1109.92 1555.75 1292.53 1772.31 1542.07 1589.1C1501.42 1558.51 1472.46 1536.62 1443.43 1514.81L1443.5 1514.88ZM905.641 2408.36C1089.89 2206.17 1286.35 2036.51 1306.97 1757.57C1162.03 1697.94 1027.51 1642.55 899.983 1590.07C764.941 1650.3 637.12 1707.32 502.45 1767.32C544.586 2037.85 721.614 2214.29 905.641 2408.36Z" fill="#15100B"/>
<path d="M402.726 1320L307 1464.5L383.39 1537L467.5 1473.5L402.726 1320Z" fill="#15100B"/>
<path d="M1367.9 1325.39L1357.25 1498.39L1459.66 1522.98L1513 1454.5L1367.9 1325.39Z" fill="#15100B"/>
<path d="M1443.5 1514.88C1472.53 1536.77 1501.49 1558.58 1542.14 1589.18C1292.6 1772.38 1109.99 1555.83 895.139 1507.14C701.733 1547.71 522.098 1766.58 276.729 1589.62C320.577 1555.45 359.065 1525.45 397.627 1495.38C414.675 1480.41 431.797 1465.45 448.845 1450.49C595.128 1326.16 745.953 1258.2 901.244 1421.9C1106.26 1279.86 1144.83 1283.14 1360.42 1450.64C1388.11 1472.08 1415.8 1493.44 1443.5 1514.88Z" fill="#F5EFFB"/>
<path d="M387.584 1356.61C419.521 1273.98 451.457 1191.42 483.394 1108.79C514.065 1100.6 544.662 1092.41 575.333 1084.22C541.982 1155.54 508.631 1226.78 469.994 1309.34C569.154 1274.2 643.301 1247.92 727.795 1218C736.803 1177.2 747.672 1127.7 758.541 1078.19C780.948 1065.83 803.282 1053.47 847.427 1029.06C831.049 1123.53 819.957 1187.1 808.344 1254.03C842.886 1276.29 873.483 1295.94 906.61 1317.23C941.45 1293.04 971.377 1272.34 999.145 1253.06C991.328 1176.83 968.623 1117.65 961.625 1049.68C984.554 1013.35 1031.9 984.911 1047.16 992.654C1069.79 1061.74 1073.74 1172.29 1097.41 1244.5C1165.3 1252.17 1227.61 1259.24 1303.32 1267.8C1266.85 1180.33 1240.79 1117.72 1214.66 1055.11C1234.17 1053.85 1253.6 1052.51 1273.1 1051.24C1313.45 1122.71 1353.8 1194.17 1394.22 1265.64C1382.91 1327.36 1371.59 1389 1360.35 1450.71C1144.76 1283.21 1106.2 1279.86 901.176 1421.97C745.96 1258.27 595.061 1326.24 448.777 1450.56C428.38 1419.29 407.908 1387.95 387.51 1356.69L387.584 1356.61Z" fill="#15100B"/>
<path d="M557.858 134.885C672.8 160.419 874.172 188.038 989.189 213.573C986.434 226.973 983.754 240.447 981 253.847C802.333 231.737 623.667 209.627 445 187.592C485.423 160.866 494.58 162.355 557.858 134.885Z" fill="#15100B"/>
<path d="M202.169 407.761C317.111 433.295 518.483 460.914 633.5 486.449C630.746 499.849 628.066 513.323 625.311 526.723C446.645 504.613 314.478 508.484 135.811 486.449C176.235 459.723 138.891 435.231 202.169 407.761Z" fill="#15100B"/>
<path d="M905.638 2408.36C721.612 2214.36 544.583 2037.93 502.447 1767.32C637.117 1707.25 764.938 1650.3 899.98 1590.07C1027.5 1642.55 1162.02 1697.87 1306.97 1757.57C1286.27 2036.51 1089.89 2206.25 905.638 2408.36Z" fill="#F5EFFB"/>
<path d="M165.746 1276.14C174.158 1286.71 182.645 1297.28 191.057 1307.78C182.645 1297.21 174.158 1286.63 165.746 1276.14Z" fill="#0E191A"/>
<path d="M575.411 1084.22C544.74 1092.41 514.144 1100.6 483.473 1108.79C559.927 1007.77 636.53 906.894 712.836 805.798C736.807 773.936 759.959 741.478 783.484 709.318C758.545 686.911 733.606 664.428 708.741 642.021C714.176 631.077 719.536 620.208 724.97 609.265C775.965 631.449 827.034 653.708 878.028 675.893C878.028 706.713 877.953 737.458 877.879 768.278L878.698 767.459C868.127 775.574 857.556 783.688 846.985 791.877C788.025 855.676 729.139 919.549 670.179 983.348L673.008 987.368C659.236 998.609 645.464 1009.92 631.617 1021.17C612.857 1042.23 594.097 1063.3 575.337 1084.44L575.411 1084.22Z" fill="#091511"/>
<path d="M877.795 768.13C877.795 737.31 877.869 706.564 877.944 675.744C905.86 686.762 933.852 697.705 961.768 708.723C974.275 717.433 986.707 726.143 999.214 734.853C1015 746.392 1030.78 758.005 1046.56 769.544L1075.52 794.781C1085.27 803.789 1095.02 812.796 1104.7 821.804C1122.49 872.277 1140.29 922.676 1158.08 973.15C1064.65 904.81 971.297 836.47 877.869 768.055L877.795 768.13Z" fill="#15100B"/>
<path d="M1158.08 973.224C1140.29 922.751 1122.5 872.352 1104.71 821.879C1160.91 898.333 1217.12 974.787 1273.25 1051.17C1253.74 1052.43 1234.31 1053.77 1214.81 1055.04L1215.85 1055.71C1207.51 1044.62 1199.1 1033.6 1190.76 1022.51C1179.89 1006.05 1168.95 989.676 1158.08 973.224Z" fill="#091511"/>
<path d="M870 759.5C778.433 835.508 666.477 964.241 559.5 1088.19L459 1319L727.868 1228L758.614 1088.19L837.5 1050.97L798.5 1263.06L906.684 1327.23L999.218 1263.06L977.48 1050.97L1027.06 1030.94L1097.48 1254.5L1303.4 1277.8C1272.5 1171.27 1231.42 1053.84 1161 966C1076.95 897.362 1008.52 838.638 906.684 770L870 759.5Z" fill="#E8BA8A"/>
</svg>
