<svg width="100" height="100" viewBox="0 0 100 100" fill="none" xmlns="http://www.w3.org/2000/svg">
<path d="M37.5 41.6666L51.075 51.85C51.916 52.4807 52.9644 52.7702 54.0099 52.6605C55.0554 52.5508 56.0208 52.0499 56.7125 51.2583L83.3333 20.8333" stroke="white" stroke-width="9" stroke-linecap="round"/>
<path d="M87.5 50C87.5001 57.8355 85.0459 65.4743 80.4819 71.8434C75.9179 78.2125 69.4735 82.992 62.0538 85.5106C54.6341 88.0292 46.6119 88.1604 39.1138 85.8858C31.6157 83.6111 25.0184 79.0449 20.2486 72.8284C15.4788 66.612 12.7761 59.0575 12.52 51.2262C12.264 43.3949 14.4674 35.68 18.8209 29.1652C23.1744 22.6505 29.4593 17.663 36.7928 14.9034C44.1263 12.1438 52.14 11.7506 59.7083 13.7792" stroke="white" stroke-width="9" stroke-linecap="round"/>
</svg>
