<svg width="100" height="100" viewBox="0 0 100 100" fill="none" xmlns="http://www.w3.org/2000/svg">
<path d="M62.5 87.5H16.6666C14.4565 87.5 12.3369 86.622 10.7741 85.0592C9.21129 83.4964 8.33331 81.3768 8.33331 79.1667V20.8333C8.33331 18.6232 9.21129 16.5036 10.7741 14.9408C12.3369 13.378 14.4565 12.5 16.6666 12.5H83.3333C85.5435 12.5 87.6631 13.378 89.2259 14.9408C90.7887 16.5036 91.6667 18.6232 91.6667 20.8333V62.5" stroke="white" stroke-width="6" stroke-linecap="round"/>
<path d="M8.33331 29.1667H91.6666M20.8333 20.875L20.875 20.8292M33.3333 20.875L33.375 20.8292M45.8333 20.875L45.875 20.8292M75 92.6792L83.8375 83.8375M83.8375 83.8375L92.6791 75M83.8375 83.8375L75 75M83.8375 83.8375L92.6791 92.6792" stroke="white" stroke-width="6" stroke-linecap="round" stroke-linejoin="round"/>
</svg>
