<svg width="100" height="100" viewBox="0 0 100 100" fill="none" xmlns="http://www.w3.org/2000/svg">
<path d="M45.8334 70.8333H54.1667V45.8333H45.8334V70.8333ZM50 37.5C51.1806 37.5 52.1709 37.1 52.9709 36.3C53.7709 35.5 54.1695 34.5111 54.1667 33.3333C54.1667 32.1528 53.7667 31.1639 52.9667 30.3667C52.1667 29.5695 51.1778 29.1695 50 29.1667C48.8195 29.1667 47.8306 29.5667 47.0334 30.3667C46.2362 31.1667 45.8362 32.1556 45.8334 33.3333C45.8334 34.5139 46.2334 35.5042 47.0334 36.3042C47.8334 37.1042 48.8223 37.5028 50 37.5ZM50 91.6667C44.2362 91.6667 38.8195 90.5722 33.75 88.3833C28.6806 86.1945 24.2709 83.2264 20.5209 79.4792C16.7709 75.7292 13.8028 71.3195 11.6167 66.25C9.4306 61.1806 8.33615 55.7639 8.33337 50C8.33337 44.2361 9.42782 38.8195 11.6167 33.75C13.8056 28.6806 16.7737 24.2708 20.5209 20.5208C24.2709 16.7708 28.6806 13.8028 33.75 11.6167C38.8195 9.43057 44.2362 8.33612 50 8.33334C55.7639 8.33334 61.1806 9.42779 66.25 11.6167C71.3195 13.8056 75.7292 16.7736 79.4792 20.5208C83.2292 24.2708 86.1987 28.6806 88.3875 33.75C90.5764 38.8195 91.6695 44.2361 91.6667 50C91.6667 55.7639 90.5723 61.1806 88.3834 66.25C86.1945 71.3195 83.2264 75.7292 79.4792 79.4792C75.7292 83.2292 71.3195 86.1986 66.25 88.3875C61.1806 90.5764 55.7639 91.6695 50 91.6667ZM50 83.3334C59.3056 83.3334 67.1875 80.1042 73.6459 73.6458C80.1042 67.1875 83.3334 59.3056 83.3334 50C83.3334 40.6945 80.1042 32.8125 73.6459 26.3542C67.1875 19.8958 59.3056 16.6667 50 16.6667C40.6945 16.6667 32.8125 19.8958 26.3542 26.3542C19.8959 32.8125 16.6667 40.6945 16.6667 50C16.6667 59.3056 19.8959 67.1875 26.3542 73.6458C32.8125 80.1042 40.6945 83.3334 50 83.3334Z" fill="white"/>
</svg>
