<svg width="100" height="100" viewBox="0 0 100 100" fill="none" xmlns="http://www.w3.org/2000/svg">
<path d="M25 50H75C78.3152 50 81.4946 48.683 83.8388 46.3388C86.183 43.9946 87.5 40.8152 87.5 37.5V29.1667C87.5 25.8515 86.183 22.672 83.8388 20.3278C81.4946 17.9836 78.3152 16.6667 75 16.6667H25C21.6848 16.6667 18.5054 17.9836 16.1612 20.3278C13.817 22.672 12.5 25.8515 12.5 29.1667V37.5C12.5 40.8152 13.817 43.9946 16.1612 46.3388C18.5054 48.683 21.6848 50 25 50ZM25 50C21.6848 50 18.5054 51.3169 16.1612 53.6612C13.817 56.0054 12.5 59.1848 12.5 62.5V70.8333C12.5 74.1485 13.817 77.328 16.1612 79.6722C18.5054 82.0164 21.6848 83.3333 25 83.3333H50M25 50H68.75M75 83.3333C72.7899 83.3333 70.6702 82.4553 69.1074 80.8925C67.5446 79.3297 66.6667 77.2101 66.6667 75C66.6667 72.7899 67.5446 70.6702 69.1074 69.1074C70.6702 67.5446 72.7899 66.6667 75 66.6667M75 83.3333C77.2101 83.3333 79.3297 82.4553 80.8926 80.8925C82.4554 79.3297 83.3333 77.2101 83.3333 75C83.3333 72.7899 82.4554 70.6702 80.8926 69.1074C79.3297 67.5446 77.2101 66.6667 75 66.6667M75 83.3333V89.5833M75 66.6667V60.4167M87.6333 67.7083L82.2208 70.8333M67.7917 79.1667L62.375 82.2917M62.375 67.7083L67.7917 70.8333M82.2208 79.1667L87.6375 82.2917M29.1667 33.3333V33.375M29.1667 66.6667V66.7083" stroke="white" stroke-width="6" stroke-linecap="round" stroke-linejoin="round"/>
</svg>
